<svg width="20" height="14" viewBox="0 0 20 14" fill="none" xmlns="http://www.w3.org/2000/svg">
<g clip-path="url(#clip0_1380_372)">
<path d="M1.09783 0.5H18.8986C19.5036 0.5 19.9964 0.960417 19.9964 1.52578V12.4708C19.9964 13.0362 19.5036 13.4966 18.8986 13.4966H1.09783C0.492754 13.5 0 13.0396 0 12.4742V1.52578C0 0.960417 0.492754 0.5 1.09783 0.5Z" fill="#B22234"/>
<path d="M0.00724638 1.42419H19.9964C20 1.45805 20.0036 1.4919 20.0036 1.52914V2.52445H0V1.52576C0 1.4919 0.00362319 1.45805 0.00724638 1.42419ZM20 3.43513V4.53201H0V3.43513H20ZM20 5.44607V6.54294H0V5.44607H20ZM20 7.45701V8.55388H0V7.45701H20ZM20 9.46795V10.5648H0V9.46795H20ZM20 11.4789V12.4708C20 12.5047 19.9964 12.5419 19.9928 12.5758H0.00724638C0.00362319 12.5453 0 12.508 0 12.4742V11.4823H20V11.4789Z" fill="white"/>
<path d="M7.53623 0.5V7.50104H0V1.52578C0 0.960417 0.492754 0.5 1.09783 0.5H7.53623Z" fill="#3C3B6E"/>
<path d="M0.445675 1.46826L0.695675 2.19613L0.0362549 1.74587H0.855095L0.192052 2.19613L0.445675 1.46826Z" fill="white"/>
<path d="M0.445675 2.87659L0.695675 3.60445L0.0362549 3.15419H0.855095L0.192052 3.60445L0.445675 2.87659Z" fill="white"/>
<path d="M0.445675 4.28491L0.695675 5.01278L0.0362549 4.56252H0.855095L0.192052 5.01278L0.445675 4.28491Z" fill="white"/>
<path d="M0.445675 5.69324L0.695675 6.4211L0.0362549 5.97084H0.855095L0.192052 6.4211L0.445675 5.69324Z" fill="white"/>
<path d="M1.32971 0.764038L1.58333 1.4919L0.920288 1.04164H1.74275L1.07609 1.4919L1.32971 0.764038Z" fill="white"/>
<path d="M1.32971 2.17236L1.58333 2.90023L0.920288 2.44997H1.74275L1.07609 2.90023L1.32971 2.17236Z" fill="white"/>
<path d="M1.32971 3.58069L1.58333 4.30855L0.920288 3.85829H1.74275L1.07609 4.30855L1.32971 3.58069Z" fill="white"/>
<path d="M1.32971 4.98901L1.58333 5.71688L0.920288 5.26662H1.74275L1.07609 5.71688L1.32971 4.98901Z" fill="white"/>
<path d="M1.32971 6.39734L1.58333 7.1252L0.920288 6.67494H1.74275L1.07609 7.1252L1.32971 6.39734Z" fill="white"/>
<path d="M2.2174 1.46826L2.47103 2.19613L1.80798 1.74587H2.62682L1.96378 2.19613L2.2174 1.46826Z" fill="white"/>
<path d="M2.2174 2.87659L2.47103 3.60445L1.80798 3.15419H2.62682L1.96378 3.60445L2.2174 2.87659Z" fill="white"/>
<path d="M2.2174 4.28491L2.47103 5.01278L1.80798 4.56252H2.62682L1.96378 5.01278L2.2174 4.28491Z" fill="white"/>
<path d="M2.2174 5.69324L2.47103 6.4211L1.80798 5.97084H2.62682L1.96378 6.4211L2.2174 5.69324Z" fill="white"/>
<path d="M3.1051 0.764038L3.3551 1.4919L2.69568 1.04164H3.51452L2.85148 1.4919L3.1051 0.764038Z" fill="white"/>
<path d="M3.1051 2.17236L3.3551 2.90023L2.69568 2.44997H3.51452L2.85148 2.90023L3.1051 2.17236Z" fill="white"/>
<path d="M3.1051 3.58069L3.3551 4.30855L2.69568 3.85829H3.51452L2.85148 4.30855L3.1051 3.58069Z" fill="white"/>
<path d="M3.1051 4.98901L3.3551 5.71688L2.69568 5.26662H3.51452L2.85148 5.71688L3.1051 4.98901Z" fill="white"/>
<path d="M3.1051 6.39734L3.3551 7.1252L2.69568 6.67494H3.51452L2.85148 7.1252L3.1051 6.39734Z" fill="white"/>
<path d="M3.98913 1.46826L4.24276 2.19613L3.57971 1.74587H4.39855L3.73551 2.19613L3.98913 1.46826Z" fill="white"/>
<path d="M3.98913 2.87659L4.24276 3.60445L3.57971 3.15419H4.39855L3.73551 3.60445L3.98913 2.87659Z" fill="white"/>
<path d="M3.98913 4.28491L4.24276 5.01278L3.57971 4.56252H4.39855L3.73551 5.01278L3.98913 4.28491Z" fill="white"/>
<path d="M3.98913 5.69324L4.24276 6.4211L3.57971 5.97084H4.39855L3.73551 6.4211L3.98913 5.69324Z" fill="white"/>
<path d="M4.87683 0.764038L5.13045 1.4919L4.46741 1.04164H5.28625L4.6232 1.4919L4.87683 0.764038Z" fill="white"/>
<path d="M4.87683 2.17236L5.13045 2.90023L4.46741 2.44997H5.28625L4.6232 2.90023L4.87683 2.17236Z" fill="white"/>
<path d="M4.87683 3.58069L5.13045 4.30855L4.46741 3.85829H5.28625L4.6232 4.30855L4.87683 3.58069Z" fill="white"/>
<path d="M4.87683 4.98901L5.13045 5.71688L4.46741 5.26662H5.28625L4.6232 5.71688L4.87683 4.98901Z" fill="white"/>
<path d="M4.87683 6.39734L5.13045 7.1252L4.46741 6.67494H5.28625L4.6232 7.1252L4.87683 6.39734Z" fill="white"/>
<path d="M5.76086 1.46826L6.01448 2.19613L5.35144 1.74587H6.17028L5.51086 2.19613L5.76086 1.46826Z" fill="white"/>
<path d="M5.76086 2.87659L6.01448 3.60445L5.35144 3.15419H6.17028L5.51086 3.60445L5.76086 2.87659Z" fill="white"/>
<path d="M5.76086 4.28491L6.01448 5.01278L5.35144 4.56252H6.17028L5.51086 5.01278L5.76086 4.28491Z" fill="white"/>
<path d="M5.76086 5.69324L6.01448 6.4211L5.35144 5.97084H6.17028L5.51086 6.4211L5.76086 5.69324Z" fill="white"/>
<path d="M6.64856 0.764038L6.90218 1.4919L6.23914 1.04164H7.05798L6.39493 1.4919L6.64856 0.764038Z" fill="white"/>
<path d="M6.64856 2.17236L6.90218 2.90023L6.23914 2.44997H7.05798L6.39493 2.90023L6.64856 2.17236Z" fill="white"/>
<path d="M6.64856 3.58069L6.90218 4.30855L6.23914 3.85829H7.05798L6.39493 4.30855L6.64856 3.58069Z" fill="white"/>
<path d="M6.64856 4.98901L6.90218 5.71688L6.23914 5.26662H7.05798L6.39493 5.71688L6.64856 4.98901Z" fill="white"/>
<path d="M6.64856 6.39734L6.90218 7.1252L6.23914 6.67494H7.05798L6.39493 7.1252L6.64856 6.39734Z" fill="white"/>
</g>
<defs>
<clipPath id="clip0_1380_372">
<rect width="20" height="13" fill="white" transform="translate(0 0.5)"/>
</clipPath>
</defs>
</svg>
